<svg width="132" height="32" viewBox="0 0 132 32" fill="none" xmlns="http://www.w3.org/2000/svg">
<rect width="132" height="32" fill="#6ADF8B"/>
<path d="M42.04 19H46.42V22H38.12V7.9H42.04V19ZM54.7042 22.14C53.3842 22.14 52.1709 21.8333 51.0642 21.22C49.9576 20.5933 49.0776 19.7333 48.4242 18.64C47.7842 17.5333 47.4642 16.2867 47.4642 14.9C47.4642 13.5133 47.7842 12.2733 48.4242 11.18C49.0776 10.0733 49.9576 9.21333 51.0642 8.6C52.1709 7.98667 53.3842 7.68 54.7042 7.68C56.0376 7.68 57.2509 7.98667 58.3442 8.6C59.4509 9.21333 60.3242 10.0733 60.9642 11.18C61.6042 12.2733 61.9242 13.5133 61.9242 14.9C61.9242 16.2867 61.6042 17.5333 60.9642 18.64C60.3242 19.7333 59.4509 20.5933 58.3442 21.22C57.2376 21.8333 56.0242 22.14 54.7042 22.14ZM54.7042 18.5C55.7042 18.5 56.4909 18.1733 57.0642 17.52C57.6509 16.8667 57.9442 15.9933 57.9442 14.9C57.9442 13.78 57.6509 12.9 57.0642 12.26C56.4909 11.6067 55.7042 11.28 54.7042 11.28C53.6909 11.28 52.8976 11.6067 52.3242 12.26C51.7509 12.9 51.4642 13.78 51.4642 14.9C51.4642 16.0067 51.7509 16.8867 52.3242 17.54C52.8976 18.18 53.6909 18.5 54.7042 18.5ZM72.6864 12.54C72.4597 12.1667 72.1464 11.88 71.7464 11.68C71.3597 11.48 70.8997 11.38 70.3664 11.38C69.3797 11.38 68.5997 11.7 68.0264 12.34C67.4664 12.98 67.1864 13.84 67.1864 14.92C67.1864 16.1333 67.4864 17.06 68.0864 17.7C68.6997 18.3267 69.5864 18.64 70.7464 18.64C72.1197 18.64 73.0997 18.02 73.6864 16.78H69.7464V13.96H77.0664V17.76C76.7597 18.5067 76.3064 19.2067 75.7064 19.86C75.1197 20.5133 74.3731 21.0533 73.4664 21.48C72.5597 21.8933 71.5264 22.1 70.3664 22.1C68.9531 22.1 67.6997 21.8 66.6064 21.2C65.5264 20.5867 64.6864 19.74 64.0864 18.66C63.4997 17.5667 63.2064 16.32 63.2064 14.92C63.2064 13.5333 63.4997 12.3 64.0864 11.22C64.6864 10.1267 65.5264 9.28 66.6064 8.68C67.6864 8.06667 68.9331 7.76 70.3464 7.76C72.1197 7.76 73.5864 8.18667 74.7464 9.04C75.9064 9.89333 76.6264 11.06 76.9064 12.54H72.6864ZM85.5831 22.14C84.2631 22.14 83.0498 21.8333 81.9431 21.22C80.8365 20.5933 79.9565 19.7333 79.3031 18.64C78.6631 17.5333 78.3431 16.2867 78.3431 14.9C78.3431 13.5133 78.6631 12.2733 79.3031 11.18C79.9565 10.0733 80.8365 9.21333 81.9431 8.6C83.0498 7.98667 84.2631 7.68 85.5831 7.68C86.9165 7.68 88.1298 7.98667 89.2231 8.6C90.3298 9.21333 91.2031 10.0733 91.8431 11.18C92.4831 12.2733 92.8031 13.5133 92.8031 14.9C92.8031 16.2867 92.4831 17.5333 91.8431 18.64C91.2031 19.7333 90.3298 20.5933 89.2231 21.22C88.1165 21.8333 86.9031 22.14 85.5831 22.14ZM85.5831 18.5C86.5831 18.5 87.3698 18.1733 87.9431 17.52C88.5298 16.8667 88.8231 15.9933 88.8231 14.9C88.8231 13.78 88.5298 12.9 87.9431 12.26C87.3698 11.6067 86.5831 11.28 85.5831 11.28C84.5698 11.28 83.7765 11.6067 83.2031 12.26C82.6298 12.9 82.3431 13.78 82.3431 14.9C82.3431 16.0067 82.6298 16.8867 83.2031 17.54C83.7765 18.18 84.5698 18.5 85.5831 18.5Z" fill="white"/>
</svg>
