<svg width="24" height="25" viewBox="0 0 24 25" fill="none" xmlns="http://www.w3.org/2000/svg">
<path d="M12 5.41504C7 5.41504 2.73 8.52504 1 12.915C2.73 17.305 7 20.415 12 20.415C17 20.415 21.27 17.305 23 12.915C21.27 8.52504 17 5.41504 12 5.41504ZM12 17.915C9.24 17.915 7 15.675 7 12.915C7 10.155 9.24 7.91504 12 7.91504C14.76 7.91504 17 10.155 17 12.915C17 15.675 14.76 17.915 12 17.915ZM12 9.91504C10.34 9.91504 9 11.255 9 12.915C9 14.575 10.34 15.915 12 15.915C13.66 15.915 15 14.575 15 12.915C15 11.255 13.66 9.91504 12 9.91504Z" fill="#4E944F"/>
</svg>
