<svg width="27" height="37" viewBox="0 0 27 37" fill="none" xmlns="http://www.w3.org/2000/svg">
<path d="M4.59969 16.0145H19.8051V18.1867H21.9773V11.6701C21.9773 10.4754 20.9998 9.49788 19.8051 9.49788H18.719V7.32568H16.5468V9.49788H7.85798V7.32568H5.68578V9.49788H4.59969C3.39412 9.49788 2.43835 10.4754 2.43835 11.6701L2.42749 26.8754C2.42749 28.0702 3.39412 29.0476 4.59969 29.0476H12.2024V26.8754H4.59969V16.0145ZM4.59969 11.6701H19.8051V13.8423H4.59969V11.6701ZM23.9757 22.8352L23.2045 23.6063L20.902 21.3038L21.6731 20.5326C22.0967 20.1091 22.781 20.1091 23.2045 20.5326L23.9757 21.3038C24.3993 21.7273 24.3993 22.4116 23.9757 22.8352ZM20.1309 22.0749L22.4334 24.3774L16.6771 30.1337H14.3746V27.8312L20.1309 22.0749Z" fill="#D41733"/>
</svg>
