<svg width="27" height="36" viewBox="0 0 27 36" fill="none" xmlns="http://www.w3.org/2000/svg">
<g clip-path="url(#clip0_1_5869)">
<path d="M19.0539 17.9927C16.0558 17.9927 13.6226 20.4259 13.6226 23.4239C13.6226 26.422 16.0558 28.8552 19.0539 28.8552C22.0519 28.8552 24.4851 26.422 24.4851 23.4239C24.4851 20.4259 22.0519 17.9927 19.0539 17.9927ZM20.8462 25.9766L18.5107 23.6412V20.1652H19.597V23.1958L21.6066 25.2054L20.8462 25.9766ZM20.1401 8.21645H16.6858C16.2296 6.9564 15.0347 6.04395 13.6226 6.04395C12.2105 6.04395 11.0156 6.9564 10.5594 8.21645H7.10512C5.91024 8.21645 4.93262 9.19407 4.93262 10.3889V26.6827C4.93262 27.8776 5.91024 28.8552 7.10512 28.8552H13.7421C13.1012 28.236 12.5798 27.4974 12.1996 26.6827H7.10512V10.3889H9.27762V13.6477H17.9676V10.3889H20.1401V15.9071C20.9114 16.0157 21.6391 16.2438 22.3126 16.5588V10.3889C22.3126 9.19407 21.335 8.21645 20.1401 8.21645ZM13.6226 10.3889C13.0252 10.3889 12.5364 9.90013 12.5364 9.3027C12.5364 8.70526 13.0252 8.21645 13.6226 8.21645C14.2201 8.21645 14.7089 8.70526 14.7089 9.3027C14.7089 9.90013 14.2201 10.3889 13.6226 10.3889Z" fill="#FFCA15"/>
</g>
<defs>
<clipPath id="clip0_1_5869">
<rect width="26.07" height="26.07" fill="white" transform="translate(0.587646 4.95752)"/>
</clipPath>
</defs>
</svg>
