<svg width="29" height="37" viewBox="0 0 29 37" fill="none" xmlns="http://www.w3.org/2000/svg">
<path d="M5.86702 12.2135H8.03922V15.4718H18.9002V12.2135H21.0724V17.644H23.2446V12.2135C23.2446 11.0188 22.2671 10.0413 21.0724 10.0413H16.5325C16.0763 8.78146 14.8816 7.86914 13.4697 7.86914C12.0578 7.86914 10.8631 8.78146 10.4069 10.0413H5.86702C4.67231 10.0413 3.69482 11.0188 3.69482 12.2135V27.4189C3.69482 28.6136 4.67231 29.5911 5.86702 29.5911H12.3836V27.4189H5.86702V12.2135ZM13.4697 10.0413C14.0671 10.0413 14.5558 10.5301 14.5558 11.1274C14.5558 11.7248 14.0671 12.2135 13.4697 12.2135C12.8724 12.2135 12.3836 11.7248 12.3836 11.1274C12.3836 10.5301 12.8724 10.0413 13.4697 10.0413Z" fill="#22BA56"/>
<path d="M23.2446 19.2732L17.2819 25.2467L14.0128 21.9884L12.3836 23.6176L17.2819 28.505L24.8737 20.9023L23.2446 19.2732Z" fill="#22BA56"/>
</svg>
