<svg width="32" height="32" viewBox="0 0 32 32" fill="none" xmlns="http://www.w3.org/2000/svg">
<path d="M15.9999 29.3335C17.4666 29.3335 18.6666 28.1335 18.6666 26.6668H13.3333C13.3333 28.1335 14.5333 29.3335 15.9999 29.3335ZM23.9999 21.3335V14.6668C23.9999 10.5735 21.8266 7.14683 17.9999 6.24016V5.3335C17.9999 4.22683 17.1066 3.3335 15.9999 3.3335C14.8933 3.3335 13.9999 4.22683 13.9999 5.3335V6.24016C10.1866 7.14683 7.99992 10.5602 7.99992 14.6668V21.3335L5.33325 24.0002V25.3335H26.6666V24.0002L23.9999 21.3335ZM21.3333 22.6668H10.6666V14.6668C10.6666 11.3602 12.6799 8.66683 15.9999 8.66683C19.3199 8.66683 21.3333 11.3602 21.3333 14.6668V22.6668Z" fill="#5C5C5C"/>
</svg>
